<svg width="180" height="40" viewBox="0 0 180 40" xmlns="http://www.w3.org/2000/svg">
  <defs>
    <linearGradient id="goldGradient" x1="0%" y1="0%" x2="100%" y2="0%">
      <stop offset="0%" style="stop-color:#FFD700;stop-opacity:1" />
      <stop offset="50%" style="stop-color:#FFA500;stop-opacity:1" />
      <stop offset="100%" style="stop-color:#FFD700;stop-opacity:1" />
    </linearGradient>
  </defs>
  
  <!-- Background elegante -->
  <rect x="0" y="0" width="180" height="40" rx="6" fill="#B71C1C" stroke="url(#goldGradient)" stroke-width="1"/>
  
  <!-- Ícone elegante -->
  <g transform="translate(8, 8)">
    <!-- Vestido estilizado -->
    <path d="M8 4 L16 4 L16 6 L14 6 L14 20 L18 24 L6 24 L10 20 L10 6 L8 6 Z" 
          fill="url(#goldGradient)" stroke="#FFD700" stroke-width="0.5"/>
    <!-- Detalhes decorativos -->
    <circle cx="12" cy="3" r="1.5" fill="#FFD700"/>
    <path d="M11 8 L13 8 M11 12 L13 12 M11 16 L13 16" stroke="#B71C1C" stroke-width="0.5"/>
  </g>
  
  <!-- Texto "Encanto Íntimo" -->
  <text x="35" y="16" font-family="Poppins, serif" font-size="11" font-weight="600" fill="#FFD700">ENCANTO</text>
  <text x="35" y="28" font-family="Poppins, serif" font-size="11" font-weight="400" fill="#FFFFFF">ÍNTIMO</text>
  
  <!-- Texto "Admin Panel" -->
  <text x="105" y="22" font-family="Poppins, sans-serif" font-size="8" font-weight="300" fill="#FFD700" opacity="0.8">Admin Panel</text>
  
  <!-- Elementos decorativos -->
  <circle cx="165" cy="12" r="2" fill="#FFD700" opacity="0.6"/>
  <circle cx="170" cy="20" r="1.5" fill="#FFD700" opacity="0.4"/>
  <circle cx="175" cy="28" r="1" fill="#FFD700" opacity="0.3"/>
</svg>
